<?xml version="1.0" standalone="no"?>
<!DOCTYPE svg PUBLIC "-//W3C//DTD SVG 20010904//EN"
 "http://www.w3.org/TR/2001/REC-SVG-20010904/DTD/svg10.dtd">
<svg version="1.0" xmlns="http://www.w3.org/2000/svg"
 width="300.000000pt" height="300.000000pt" viewBox="0 0 300.000000 300.000000"
 preserveAspectRatio="xMidYMid meet">
<metadata>
Created by potrace 1.10, written by Peter Selinger 2001-2011
</metadata>
<g transform="translate(0.000000,300.000000) scale(0.050000,-0.050000)"
fill="#fb8383" stroke="none">
<path d="M3750 5497 c-167 -93 -304 -354 -372 -712 -13 -69 -26 -125 -30 -125
-3 0 -39 22 -79 49 -149 102 -282 137 -514 138 -223 0 -312 -26 -213 -64 162
-62 129 -96 -107 -109 -847 -47 -1204 -555 -1167 -1664 16 -489 22 -536 79
-561 54 -24 65 -94 22 -137 -101 -101 344 -1330 582 -1608 182 -212 659 -306
689 -135 14 81 67 109 117 64 133 -120 1451 1092 1364 1255 -54 101 27 200
109 132 22 -18 42 1 102 94 574 897 547 1633 -77 2052 -109 73 -115 81 -50 70
76 -14 69 6 -33 100 -174 161 -351 243 -541 253 -146 8 -145 4 -21 261 100
208 197 329 322 402 105 62 108 81 23 162 -105 99 -146 116 -205 83z m-2101
-1548 c36 -37 38 -58 10 -110 -25 -47 -110 -52 -127 -7 -42 110 41 193 117
117z m1031 -320 c54 -64 -47 -181 -110 -129 -30 25 -41 122 -17 147 25 24 102
13 127 -18z m861 -470 c27 -52 -22 -139 -79 -139 -52 0 -89 126 -49 167 29 28
107 11 128 -28z m-1712 -10 c47 -48 34 -115 -30 -150 -78 -41 -140 115 -64
159 47 28 57 27 94 -9z m2540 -180 c38 -39 39 -70 5 -117 -41 -56 -123 -35
-130 34 -12 98 61 146 125 83z m-1599 -589 c38 -62 -67 -164 -121 -119 -40 33
-37 133 5 156 36 20 92 2 116 -37z m801 -8 c32 -23 35 -38 18 -85 -35 -101
-148 -83 -149 24 0 80 63 110 131 61z m-1670 -593 c53 -28 50 -109 -6 -148
-78 -55 -153 68 -84 138 38 37 40 37 90 10z m1199 -209 c14 -16 19 -51 12 -78
-24 -96 -152 -82 -152 16 0 84 89 123 140 62z m-759 -631 c30 -58 -25 -144
-87 -135 -45 6 -70 86 -46 148 17 43 107 34 133 -13z"/>
</g>
</svg>
